<svg width="166" height="162" viewBox="0 0 166 162" fill="none" xmlns="http://www.w3.org/2000/svg">
<path d="M56.0009 40.3846C38.8188 37.9231 16.7275 66.2308 41.2734 66.2308C58.4555 61.3077 65.8193 72.3846 51.0917 83.4616C46.1826 87.1539 33.9096 87.1539 29.0005 81M67.0466 19.4615C67.0466 47.7692 64.592 85.9231 84.2287 83.4616C103.865 81 98.9562 34.2308 100.183 19.4615M108.775 84.6923C108.775 82.7812 108.775 44.0085 111.018 29.3464C111.058 29.0882 111.413 29.09 111.459 29.347L116.138 55.1539L123.262 81.3497C123.326 81.5838 123.659 81.5789 123.716 81.343L131.792 47.788C131.853 47.5343 132.22 47.555 132.252 47.814L137.002 85.9231M30.2278 156.077L33.812 94.9728C33.8279 94.7013 34.2146 94.6698 34.274 94.9352L47.1303 152.367C47.1873 152.621 47.5536 152.607 47.5904 152.348L55.7958 94.7475C55.8334 94.4837 56.2108 94.4768 56.2579 94.7391L67.0466 154.846M97.7289 93.3077C94.0582 90.8536 84.2882 87.9102 74.4996 95.6979C74.4439 95.7422 74.4103 95.8095 74.4103 95.8808C74.4103 105.72 74.4103 119.586 74.4103 125.308M74.4103 125.308C82.1832 122.846 94.047 121.615 96.5016 120.385M74.4103 125.308C74.4103 136.385 74.4347 154.356 79.3195 154.846C91.5924 156.077 96.5016 154.846 96.5016 154.846M111.229 156.077C111.229 151.154 111.078 144.785 111.229 131.462M111.229 131.462C111.377 118.454 112.044 102.81 112.45 92.2448C112.454 92.1434 112.523 92.0578 112.62 92.031C125.863 88.3883 142.418 102.138 133.32 120.385C129.639 127.769 121.248 127.818 111.229 131.462ZM111.229 131.462C119.411 133.513 136.02 141.308 137.002 156.077M116.138 27.0923L84.2287 1L2 66.2308H24.0913V161H143.139V66.2308H164.003L128.411 37.1278M116.138 27.0923V8.38462H128.411V37.1278M116.138 27.0923L128.411 37.1278" stroke="black" stroke-linecap="round"/>
</svg>
